<svg width="436" height="197" xmlns="http://www.w3.org/2000/svg">
 <!-- Created with Method Draw - http://github.com/duopixel/Method-Draw/ -->

 <g>
  <title>background</title>
  <rect fill="#fff" id="canvas_background" height="199" width="438" y="-1" x="-1"/>
  <g display="none" overflow="visible" y="0" x="0" height="100%" width="100%" id="canvasGrid">
   <rect fill="url(#gridpattern)" stroke-width="0" y="0" x="0" height="100%" width="100%"/>
  </g>
 </g>
 <g>
  <title>Layer 1</title>
  <defs>
   <pattern y="0" x="0" height="6" width="6" patternUnits="userSpaceOnUse" id="svg_23"/>
  </defs>
  <metadata transform="matrix(0.2539525060129222,0,0,0.2539525060129222,0,0) " id="svg_22">image/svg+xml</metadata>
  <g stroke="null" id="svg_44">
   <path stroke="null" id="svg_30" fill="#ffd740" d="m217.999943,32.723066c-17.824773,0 -32.276866,14.450123 -32.276866,32.276866c0,13.541943 8.349944,25.117801 20.173041,29.908899l0,-17.805074l-4.034608,0c-1.486382,0 -2.854563,-0.818544 -3.558847,-2.130581c-0.701328,-1.311051 -0.625483,-2.90283 0.201927,-4.140988l16.138433,-24.207649c0.748609,-1.123898 2.007455,-1.797647 3.35692,-1.797647s2.608311,0.673749 3.35692,1.797647l16.138433,24.207649c0.82544,1.238158 0.901286,2.829937 0.201927,4.140988c-0.704284,1.312037 -2.072465,2.130581 -3.558847,2.130581l-4.034608,0l0,17.805074c11.823097,-4.791097 20.173041,-16.366955 20.173041,-29.908899c0,-17.826742 -14.452093,-32.276866 -32.276866,-32.276866zm0,0"/>
   <g stroke="null" transform="matrix(0.2521630119555229,0,0,0.2521630119555229,-527.326006939802,-427.8799995413465) " id="svg_31" fill="#263238">
    <path stroke="null" id="svg_32" d="m2955.730789,2150.608467c-108.07812,0 -196,-87.92969 -196,-196s87.92188,-196 196,-196s196,87.92969 196,196s-87.92187,196 -196,196zm0,-384c-103.66406,0 -188,84.33594 -188,188s84.33594,188 188,188s188,-84.33594 188,-188s-84.33594,-188 -188,-188zm0,0"/>
    <path stroke="null" id="svg_33" d="m2731.730789,1958.608467c-2.20703,0 -4,-1.79297 -4,-4c0,-125.71875 102.28125,-228 228,-228c2.20703,0 4,1.79297 4,4s-1.79297,4 -4,4c-121.30469,0 -220,98.6875 -220,220c0,2.20703 -1.79297,4 -4,4zm0,0"/>
    <path stroke="null" id="svg_34" d="m2979.730789,1734.608467l-8,0c-2.20703,0 -4,-1.79297 -4,-4s1.79297,-4 4,-4l8,0c2.20703,0 4,1.79297 4,4s-1.79297,4 -4,4zm0,0"/>
    <path stroke="null" id="svg_35" d="m2955.730789,2182.608467c-2.20703,0 -4,-1.79297 -4,-4s1.79297,-4 4,-4c121.30469,0 220,-98.6875 220,-220c0,-2.20703 1.79297,-4 4,-4s4,1.79297 4,4c0,125.71875 -102.28125,228 -228,228zm0,0"/>
    <path stroke="null" id="svg_36" d="m2939.730789,2182.608467l-8,0c-2.20703,0 -4,-1.79297 -4,-4s1.79297,-4 4,-4l8,0c2.20703,0 4,1.79297 4,4s-1.79297,4 -4,4zm0,0"/>
    <path stroke="null" id="svg_37" d="m3123.730789,1750.608467l-32,0c-2.20703,0 -4,-1.79297 -4,-4s1.79297,-4 4,-4l32,0c2.20703,0 4,1.79297 4,4s-1.79297,4 -4,4zm0,0"/>
    <path stroke="null" id="svg_38" d="m3107.730789,1766.608467c-2.20703,0 -4,-1.79297 -4,-4l0,-32c0,-2.20703 1.79297,-4 4,-4s4,1.79297 4,4l0,32c0,2.20703 -1.79297,4 -4,4zm0,0"/>
    <path stroke="null" id="svg_39" d="m3179.730789,1802.608467l-32,0c-2.20703,0 -4,-1.79297 -4,-4s1.79297,-4 4,-4l32,0c2.20703,0 4,1.79297 4,4s-1.79297,4 -4,4zm0,0"/>
    <path stroke="null" id="svg_40" d="m3163.730789,1818.608467c-2.20703,0 -4,-1.79297 -4,-4l0,-32c0,-2.20703 1.79297,-4 4,-4s4,1.79297 4,4l0,32c0,2.20703 -1.79297,4 -4,4zm0,0"/>
   </g>
   <path stroke="null" id="svg_41" fill="#ff5252" d="m217.999943,48.861499l-16.138433,24.207649l8.069216,0l0,22.190345c0,1.113063 0.904241,2.017304 2.017304,2.017304l12.103825,0c1.113063,0 2.017304,-0.904241 2.017304,-2.017304l0,-22.190345l8.069216,0l-16.138433,-24.207649zm0,0"/>
   <path stroke="null" id="svg_42" fill="#263238" d="m224.051855,98.285449l-12.103825,0c-1.668611,0 -3.025956,-1.357346 -3.025956,-3.025956l0,-21.181693l-7.060564,0c-0.37332,0 -0.714133,-0.205868 -0.887495,-0.532891c-0.177303,-0.328009 -0.157602,-0.725955 0.048267,-1.034262l16.138433,-24.207649c0.375289,-0.561459 1.303168,-0.561459 1.67846,0l16.138433,24.207649c0.207835,0.308307 0.225567,0.708223 0.048264,1.034262c-0.173362,0.327023 -0.514176,0.532891 -0.887495,0.532891l-7.060564,0l0,21.181693c0,1.668611 -1.357346,3.025956 -3.025956,3.025956zm-20.304047,-26.224953l6.182919,0c0.556531,0 1.008652,0.452121 1.008652,1.008652l0,22.190345c0,0.556531 0.45409,1.008652 1.008652,1.008652l12.103825,0c0.554562,0 1.008652,-0.452121 1.008652,-1.008652l0,-22.190345c0,-0.556531 0.452121,-1.008652 1.008652,-1.008652l6.182919,0l-14.252135,-21.381651l-14.252135,21.381651zm0,0"/>
   <path stroke="null" id="svg_43" fill="#263238" d="m230.103768,95.917482c-0.39696,0 -0.776188,-0.238375 -0.935762,-0.629424c-0.209807,-0.517131 0.042356,-1.106169 0.556531,-1.314006c11.871363,-4.810796 19.543619,-16.184727 19.543619,-28.97412c0,-17.241646 -14.026568,-31.268213 -31.268213,-31.268213s-31.268213,14.026568 -31.268213,31.268213c0,12.789393 7.672256,24.163324 19.541647,28.97412c0.516147,0.209807 0.766341,0.796875 0.556534,1.314006c-0.20981,0.514176 -0.798845,0.7624 -1.313023,0.554562c-12.636716,-5.120092 -20.802463,-17.225886 -20.802463,-30.842688c0,-18.353725 14.931792,-33.285518 33.285518,-33.285518s33.285518,14.931792 33.285518,33.285518c0,13.616803 -8.165747,25.722597 -20.804434,30.844658c-0.123126,0.048267 -0.252163,0.072893 -0.377259,0.072893zm0,0"/>
  </g>
  <text xml:space="preserve" text-anchor="start" font-family="Euphoria, sans-serif" font-size="24" id="svg_46" y="161.5" x="194.5" stroke-width="0" stroke="#000" fill="#000000">@golevelup/ts</text>
  <style transform="matrix(0.026950696858101475,0,0,0.026950696858101475,0,0) ">.st0{fill:#007acc}.st1{fill:#fff}</style>
  <g stroke="null" id="svg_53">
   <path stroke="null" id="svg_51" d="m77.486786,131.999988l0,-53.890129l107.780259,0l0,107.780259l-107.780259,0" class="st0"/>
   <path stroke="null" id="svg_52" d="m101.117608,132.188603l0,4.392046l14.011434,0l0,39.878696l9.942729,0l0,-39.878696l14.011434,0l0,-4.31121c0,-2.425056 0,-4.392046 -0.10778,-4.445936c0,-0.080835 -8.541586,-0.10778 -18.915435,-0.10778l-18.861545,0.080835l0,4.418991l-0.080835,-0.026945zm62.970616,-4.499826c2.748397,0.646682 4.850112,1.886155 6.736266,3.853144c0.996967,1.077803 2.478946,2.963957 2.586726,3.448968c0,0.16167 -4.661496,3.314243 -7.490728,5.065672c-0.10778,0.080835 -0.538901,-0.377231 -0.970022,-1.077803c-1.401143,-1.993935 -2.829232,-2.856177 -5.065672,-3.017847c-3.233408,-0.215561 -5.389013,1.481979 -5.389013,4.31121c0,0.862242 0.16167,1.347253 0.485011,2.047825c0.727517,1.481979 2.07477,2.371166 6.251255,4.20343c7.706289,3.314243 11.047477,5.496793 13.068356,8.622421c2.290331,3.502858 2.802287,8.999652 1.266418,13.122247c-1.724484,4.499826 -5.927914,7.544618 -11.936664,8.541586c-1.886155,0.323341 -6.197365,0.269451 -8.218245,-0.080835c-4.31121,-0.808352 -8.433805,-2.963957 -10.966641,-5.739299c-0.996967,-1.077803 -2.910067,-3.960925 -2.802287,-4.14954l1.023912,-0.646682l4.04176,-2.344221l3.044792,-1.778374l0.700572,0.943077c0.889187,1.401143 2.883122,3.287298 4.04176,3.933979c3.502858,1.805319 8.1913,1.562814 10.508575,-0.538901c0.996967,-0.916132 1.428088,-1.886155 1.428088,-3.233408c0,-1.239473 -0.188615,-1.805319 -0.808352,-2.748397c-0.862242,-1.185583 -2.586726,-2.155605 -7.436838,-4.31121c-5.577628,-2.371166 -7.948794,-3.880089 -10.158289,-6.197365c-1.266418,-1.401143 -2.425056,-3.583694 -2.963957,-5.389013c-0.404176,-1.562814 -0.538901,-5.389013 -0.16167,-6.924882c1.158638,-5.389013 5.227343,-9.161322 11.047477,-10.239125c1.886155,-0.377231 6.33209,-0.215561 8.1913,0.269451l-0.05389,0.05389z" class="st1"/>
  </g>
 </g>
</svg>